<svg xmlns="http://www.w3.org/2000/svg" width="21.234" height="18.344" viewBox="0 0 21.234 18.344">
  <path id="icon-bed" d="M18.82,42.924v-5.9a2.18,2.18,0,0,0-2.177-2.177H4.592A2.18,2.18,0,0,0,2.415,37.02v5.9A3.157,3.157,0,0,0,0,45.988v4.4a.633.633,0,0,0,.633.633H2.415v1.53a.633.633,0,1,0,1.265,0v-1.53H17.554v1.53a.633.633,0,1,0,1.265,0v-1.53H20.6a.633.633,0,0,0,.633-.633v-4.4A3.156,3.156,0,0,0,18.82,42.924ZM3.68,37.02a.913.913,0,0,1,.912-.912h12.05a.913.913,0,0,1,.912.912v5.816h-2.09v-1a3,3,0,0,0-3-3h-3.7a3,3,0,0,0-3,3v1H3.68ZM14.2,41.839v1H7.036v-1a1.736,1.736,0,0,1,1.734-1.734h3.7A1.736,1.736,0,0,1,14.2,41.839ZM1.265,49.759V45.988A1.889,1.889,0,0,1,3.152,44.1H18.083a1.889,1.889,0,0,1,1.886,1.886v3.771Z" transform="translate(0 -34.843)" fill="#d78d00"/>
</svg>
